<svg width="362" height="39" viewBox="0 0 362 39" fill="none" xmlns="http://www.w3.org/2000/svg">
<g clip-path="url(#clip0_17_369)">
<path d="M298.673 4.41874L284.422 24.7833C282.496 27.4729 279.607 30.1626 275.948 30.3547V30.9311H291.74C295.977 30.9311 299.058 28.2414 300.984 25.1675L315.621 4.22662H298.673V4.41874Z" fill="black"/>
<path d="M155.385 20.5567H163.089L159.045 13.064L155.385 20.5567ZM169.059 31.1232L165.978 25.7438H152.689L149.993 31.1232H143.445L156.734 6.72414H162.704L177.726 31.1232H169.059ZM12.4828 20.5567H20.3791L16.3346 13.064L12.4828 20.5567ZM26.542 31.1232L23.4605 25.7438H9.78654L6.89767 31.1232H0.156982L13.831 6.72414H19.9939L35.4012 31.1232H26.542ZM66.2157 17.867C69.1046 17.867 70.4527 16.5222 70.4527 14.7931C70.4527 13.064 69.2972 11.9113 66.2157 11.9113H58.7047V17.867H66.2157ZM71.9935 21.9015L81.8156 31.1232H74.112C72.3787 31.1232 71.2231 30.5468 70.4527 29.7783L63.7121 23.2463C63.7121 23.0542 63.5195 23.0542 63.3269 23.0542H58.7047V31.1232H51.5788V6.72414H66.9861C75.0749 6.72414 78.349 10.3744 78.349 14.2168C78.349 18.8276 74.3046 21.133 71.9935 21.9015ZM127.46 17.867C130.349 17.867 131.697 16.5222 131.697 14.7931C131.697 13.064 130.541 11.9113 127.46 11.9113H119.949V17.867H127.46ZM133.237 21.9015L143.06 31.1232H135.356C133.623 31.1232 132.467 30.5468 131.697 29.7783L124.956 23.2463C124.956 23.0542 124.763 23.0542 124.571 23.0542H119.949V31.1232H112.823V6.72414H128.23C136.319 6.72414 139.593 10.3744 139.593 14.2168C139.593 18.8276 135.549 21.133 133.237 21.9015ZM243.977 31.1232V6.72414H268.822V11.9113H251.296V16.1379H268.629V21.3251H251.296V25.7438H268.822V30.931L243.977 31.1232ZM84.7045 31.1232V6.72414H108.586V11.9113H91.8304V18.0591H108.008V23.2463H91.6378V31.1232H84.7045ZM239.548 14.601C236.274 13.064 232.614 11.7192 227.8 11.7192C222.022 11.7192 217.785 14.601 217.785 18.8276C217.785 23.0542 222.215 26.1281 227.8 26.1281C232.422 26.1281 236.081 24.9754 239.74 22.8621V28.8177C236.466 30.3547 232.229 31.5074 227.415 31.5074C217.592 31.5074 209.889 26.5123 209.889 18.8276C209.889 11.1429 217.785 6.3399 227.415 6.3399C232.037 6.3399 236.081 7.10838 239.548 8.64532V14.601ZM202.378 31.1232L185.237 16.7143V31.1232H179.267V6.72414H184.467L201.415 20.9409V6.72414H207.385V31.1232H202.378ZM44.8381 31.1232H37.7123V6.72414H44.8381V31.1232Z" fill="black"/>
</g>
<defs>
<clipPath id="clip0_17_369">
<rect width="362" height="39" fill="white"/>
</clipPath>
</defs>
</svg>
