<svg width="188" height="59" viewBox="0 0 188 59" fill="none" xmlns="http://www.w3.org/2000/svg">
<g clip-path="url(#clip0_17_366)">
<path d="M99.0808 14.824C99.0808 16.9503 97.3775 18.6625 95.2636 18.6625C93.1496 18.6625 91.4475 16.9503 91.4475 14.824C91.4475 12.6977 93.0916 10.9856 95.2636 10.9856C97.4373 11.0446 99.0808 12.7573 99.0808 14.824ZM83.3449 22.5611V23.5063C83.3449 23.5063 81.5254 21.1428 77.6501 21.1428C71.2509 21.1428 66.2593 26.045 66.2593 32.8364C66.2593 39.5693 71.1922 44.5299 77.6501 44.5299C81.5841 44.5299 83.3449 42.1086 83.3449 42.1086V43.1122C83.3449 43.5848 83.698 43.9382 84.1672 43.9382H88.9224V21.7316H84.1672C83.698 21.7334 83.3449 22.1476 83.3449 22.5611ZM83.3449 36.7934C82.4651 38.0932 80.7031 39.2153 78.5897 39.2153C74.8323 39.2153 71.9547 36.853 71.9547 32.8364C71.9547 28.8203 74.8323 26.458 78.5897 26.458C80.645 26.458 82.5237 27.6392 83.3449 28.8793V36.7934ZM92.4458 21.7334H98.0819V43.9399H92.4458V21.7334ZM176.642 21.1422C172.767 21.1422 170.946 23.5057 170.946 23.5057V11.0446H165.31V43.9399H170.066C170.536 43.9399 170.887 43.5264 170.887 43.1128V42.1092C170.887 42.1092 172.708 44.5305 176.582 44.5305C182.982 44.5305 187.973 39.5711 187.973 32.8381C187.973 26.1052 182.982 21.1422 176.642 21.1422ZM175.702 39.1557C173.529 39.1557 171.827 38.0348 170.946 36.7344V28.8203C171.827 27.6392 173.706 26.399 175.702 26.399C179.46 26.399 182.337 28.7613 182.337 32.7774C182.337 36.7934 179.46 39.1557 175.702 39.1557ZM162.375 30.7702V43.999H156.737V31.4192C156.737 27.7583 155.563 26.281 152.395 26.281C150.692 26.281 148.93 27.1672 147.813 28.4669V43.9405H142.178V21.734H146.639C147.109 21.734 147.461 22.1476 147.461 22.5611V23.5063C149.105 21.793 151.277 21.1428 153.449 21.1428C155.916 21.1428 157.971 21.8526 159.615 23.2697C161.61 24.9234 162.375 27.0492 162.375 30.7702ZM128.496 21.1422C124.621 21.1422 122.801 23.5057 122.801 23.5057V11.0446H117.165V43.9399H121.92C122.39 43.9399 122.742 43.5264 122.742 43.1128V42.1092C122.742 42.1092 124.563 44.5305 128.437 44.5305C134.837 44.5305 139.828 39.5711 139.828 32.8381C139.886 26.1046 134.896 21.1422 128.496 21.1422ZM127.556 39.1557C125.384 39.1557 123.682 38.0348 122.801 36.7344V28.8203C123.682 27.6392 125.561 26.399 127.556 26.399C131.315 26.399 134.191 28.7613 134.191 32.7774C134.191 36.7934 131.315 39.1557 127.556 39.1557ZM112.291 21.1422C113.993 21.1422 114.874 21.4384 114.874 21.4384V26.694C114.874 26.694 110.177 25.0993 107.242 28.4663V43.9983H101.605V21.7334H106.361C106.831 21.7334 107.182 22.147 107.182 22.5605V23.5057C108.24 22.265 110.53 21.1422 112.291 21.1422ZM53.7541 41.9316C53.4608 41.2231 53.167 40.4555 52.8737 39.8053C52.4033 38.7427 51.9335 37.738 51.5235 36.7934L51.4648 36.7344C47.4129 27.8752 43.0689 18.8991 38.4886 10.041L38.3126 9.68582C37.8309 8.76689 37.3614 7.84152 36.9043 6.90993C36.3166 5.84618 35.7301 4.7252 34.7904 3.66145C32.9117 1.29913 30.2106 -0.000610352 27.3342 -0.000610352C24.3979 -0.000610352 21.7561 1.29914 19.8194 3.54287C18.9384 4.60543 18.292 5.7276 17.7054 6.79135C17.2472 7.72235 16.7777 8.64771 16.2971 9.56723L16.1206 9.9224C11.5995 18.7805 7.19625 27.7572 3.14496 36.6158L3.08573 36.7332C2.67514 37.6796 2.20473 38.6831 1.7349 39.7451C1.44163 40.3953 1.14835 41.1039 0.855079 41.8714C0.0913929 44.0562 -0.143824 46.1235 0.150623 48.2504C0.796413 52.68 3.7315 56.3993 7.78338 58.0542C9.31016 58.7044 10.8956 58.9994 12.5391 58.9994C13.0089 58.9994 13.5955 58.9404 14.0659 58.8808C16.0039 58.6448 17.9999 57.9958 19.9378 56.8737C22.345 55.5149 24.6349 53.5668 27.2181 50.7319C29.8012 53.5668 32.1498 55.5149 34.4983 56.8737C36.4369 57.9958 38.4323 58.6448 40.3697 58.8808C40.8395 58.941 41.4272 58.9994 41.897 58.9994C43.5411 58.9994 45.1846 58.7044 46.6522 58.0542C50.7627 56.3993 53.6391 52.621 54.2855 48.2504C54.7518 46.1837 54.5172 44.1175 53.7541 41.9316ZM27.275 45.0025C24.1041 40.9865 22.0488 37.207 21.345 34.0187C21.0517 32.66 20.9925 31.4788 21.169 30.4156C21.2857 29.4705 21.6388 28.6433 22.1086 27.9347C23.2243 26.3412 25.103 25.3364 27.2756 25.3364C29.4487 25.3364 31.3861 26.2816 32.4431 27.9347C32.9129 28.6433 33.2648 29.4711 33.3833 30.4156C33.5587 31.4794 33.5 32.719 33.2067 34.0187C32.5 37.148 30.4447 40.9281 27.275 45.0025ZM50.7005 47.7784C50.29 50.8493 48.2347 53.5078 45.3583 54.6889C43.9494 55.2789 42.422 55.4565 40.8964 55.2789C39.4288 55.1013 37.9601 54.6288 36.4345 53.7438C34.3206 52.5614 32.2073 50.7319 29.7408 48.0144C33.6156 43.2314 35.9641 38.8602 36.8451 34.9633C37.2563 33.132 37.3155 31.4788 37.1384 29.9425C36.9043 28.4663 36.3753 27.1076 35.5535 25.9264C33.7323 23.2679 30.6787 21.7334 27.2744 21.7334C23.8701 21.7334 20.8165 23.3281 18.9964 25.9264C18.1747 27.1076 17.6456 28.4663 17.411 29.9425C17.1764 31.4788 17.2344 33.191 17.7043 34.9633C18.5847 38.8602 20.9919 43.2898 24.808 48.0734C22.4008 50.7903 20.2282 52.6216 18.1143 53.8028C16.5875 54.689 15.1205 55.1615 13.653 55.3379C12.0681 55.5155 10.5408 55.2789 9.19052 54.7479C6.31408 53.5668 4.25882 50.9083 3.84823 47.8374C3.67227 46.3613 3.78899 44.8851 4.37671 43.2314C4.55209 42.6402 4.84654 42.0502 5.13981 41.3416C5.55098 40.3965 6.01963 39.3917 6.49005 38.3882L6.54929 38.2707C10.6 29.4705 14.9446 20.4938 19.4657 11.7537L19.6416 11.3986C20.112 10.5136 20.5819 9.56841 21.0511 8.68225C21.5209 7.73709 22.0488 6.85093 22.6952 6.08276C23.9281 4.66679 25.5716 3.89803 27.3923 3.89803C29.2129 3.89803 30.8564 4.66679 32.0894 6.08276C32.7357 6.85269 33.2636 7.73886 33.7335 8.68225C34.2039 9.56841 34.6737 10.5136 35.1423 11.3986L35.3189 11.7537C39.7711 20.5301 44.0579 29.3904 48.1772 38.3298V38.3888C48.6476 39.3351 49.0582 40.3971 49.528 41.3434C49.8213 42.0508 50.1152 42.6408 50.2911 43.232C50.7598 44.7659 50.9357 46.2433 50.7005 47.7784Z" fill="#151515"/>
</g>
<defs>
<clipPath id="clip0_17_366">
<rect width="188" height="59" fill="white"/>
</clipPath>
</defs>
</svg>
