<svg width="199" height="38" viewBox="0 0 199 38" fill="none" xmlns="http://www.w3.org/2000/svg">
<g clip-path="url(#clip0_17_375)">
<path d="M115.387 29.4684H102.805V22.3852H115.394C117.464 22.4195 119.135 23.9728 119.135 25.9134C119.135 27.854 117.457 29.4684 115.387 29.4684ZM102.805 8.70092H115.171C116.862 8.72119 118.296 10.0309 118.296 11.7473C118.296 13.4568 116.794 14.8205 115.096 14.8003H102.805V8.70092ZM122.497 18.6063C124.824 16.9645 125.703 14.2439 125.703 11.2521C125.703 5.62084 120.975 1.10909 115.177 1.10909H94.1795V37.0603H116.003V37.0743C122.132 37.0743 127.232 32.3318 127.232 26.5243C127.232 22.7386 124.959 19.9363 122.497 18.6063ZM154.88 1.02801V21.2392C154.88 27.4199 151.281 30.0114 146.857 30.0114C142.426 30.0114 138.854 27.4265 138.854 21.2458V1.02801H129.918V21.3003C129.918 34.2315 137.494 37.9967 146.857 37.9967C156.226 37.9967 163.809 34.2315 163.809 21.3003V1.02801H154.88ZM186.235 15.0382C179.003 13.464 176.561 12.7652 176.561 10.4653C176.561 8.43679 179.179 7.41238 183.313 7.41238C187.216 7.41238 191.931 9.08137 194.698 10.7435L197.518 3.42983C193.324 1.67945 188.278 0.00360107 181.608 0.00360107C172.861 0.00360107 167.402 5.1328 167.402 11.4015C167.402 17.6773 171.9 20.4387 180.816 22.3316C187.73 23.7969 189.603 24.6788 189.603 26.8365C189.603 28.9941 186.83 29.7875 183.082 29.7875C178.232 29.7875 173.564 28.1659 169.167 26.273L166.509 33.4033C171.765 35.846 177.224 37.8065 183.732 37.8065C194.576 37.8065 199 32.6096 199 26.5512C199 21.1641 195.279 17.0119 186.235 15.0379M18.1093 1.10909L0 37.0537L10.7559 37.0606L13.462 31.2803H25.814L21.9721 23.4031H17.0947L21.6879 13.5725L33.2557 37.0606H44.039L25.2257 1.10909H18.1093ZM90.8718 13.0636C90.8718 6.51645 86.3934 1.2042 77.1862 1.2042H58.5899V37.1554L67.2082 37.1482V8.79572H77.7816C80.9069 8.79572 82.2057 10.7363 82.2057 13.043C82.2057 15.3566 80.8394 17.2086 77.7139 17.2086H70.3198L81.5092 37.1482H90.3575C90.3575 37.1482 82.6997 24.1153 82.7402 24.1085C88.2671 22.3852 90.8715 18.1856 90.8715 13.0633M45.8857 37.0737H54.8015V1.12936H45.8857V37.0737Z" fill="black"/>
</g>
<defs>
<clipPath id="clip0_17_375">
<rect width="199" height="38" fill="white"/>
</clipPath>
</defs>
</svg>
